<?xml version="1.0" encoding="UTF-8" standalone="no"?>
<svg
   version="1.1"
   id="Layer_1"
   x="0px"
   y="0px"
   viewBox="4.7914 31.2821 849.24798 849.248"
   enable-background="new 4.7914 31.2821 745.7799 849.248"
   xml:space="preserve"
   sodipodi:docname="secretsanta.svg"
   inkscape:version="1.1.1 (3bf5ae0d25, 2021-09-20, custom)"
   width="849.24799"
   height="849.24799"
   xmlns:inkscape="http://www.inkscape.org/namespaces/inkscape"
   xmlns:sodipodi="http://sodipodi.sourceforge.net/DTD/sodipodi-0.dtd"
   xmlns="http://www.w3.org/2000/svg"
   xmlns:svg="http://www.w3.org/2000/svg"><defs
   id="defs25" /><sodipodi:namedview
   id="namedview23"
   pagecolor="#ffffff"
   bordercolor="#666666"
   borderopacity="1.0"
   inkscape:pageshadow="2"
   inkscape:pageopacity="0.0"
   inkscape:pagecheckerboard="true"
   showgrid="false"
   inkscape:zoom="0.68495061"
   inkscape:cx="205.12428"
   inkscape:cy="464.99703"
   inkscape:window-width="1920"
   inkscape:window-height="1049"
   inkscape:window-x="0"
   inkscape:window-y="0"
   inkscape:window-maximized="1"
   inkscape:current-layer="g20"
   width="745.77991px" />
<g
   id="g20">
	<path
   fill="#CE000A"
   d="m 398.74,61.64 c 55.5,-17.41 116.38,-18.84 172.01,-1.22 36.57,11.52 70.46,31.24 98.76,57.07 25.03,21.91 41.71,52.3 49.16,84.54 9.61,40.72 7.45,83 3.53,124.29 -0.96,6.96 -0.01,13.95 0.69,20.88 1.19,9.36 1.96,18.78 3.58,28.08 1.8,0.29 3.6,0.61 5.39,0.97 15.3,2.39 29.08,11.18 39.25,22.64 10.76,12.08 17.04,27.71 18.89,43.7 v 14.84 c -2.21,20.74 -12.57,40.61 -29.06,53.52 -12.89,10.29 -29.4,16.11 -45.93,15.58 -17.76,-0.05 -35.22,-7.32 -48.09,-19.49 0.74,7.47 2.39,14.81 3.53,22.23 4.01,21.56 5.91,43.55 5.06,65.49 -1.04,23.92 -6.01,47.66 -14.6,70.02 -23.37,59.6299 -65.28,112.14 -119.08,147.08 -33.35,21.83 -70.99,36.86 -109.99,44.9 -45.5,9.36 -92.76,9.38 -138.43,1.14 C 252.14,850.52 212.13,836.44 175.09,816.84 158.97,808.11 142.9,798.99 128.72,787.29 106.7,769.3 89.84,745 81.34,717.81 73.97,694.68 72.3,670.09 73.94,645.98 77.02,604.15 89.56,563.7 104.69,524.8 c 17.44,-45.07 39.27,-88.24 58.8,-132.41 1.74,-4.45 4.05,-8.72 5.25,-13.37 -0.38,-4.51 -2.13,-8.84 -2.32,-13.39 -1.86,-20.58 4.82,-40.66 13,-59.23 1.59,-3.79 4.29,-7.65 2.99,-11.96 -2.96,-12.18 0.17,-24.84 5.17,-36.03 6.24,-13.87 15.03,-26.46 24.68,-38.16 3.1,-3.86 6.87,-7.17 9.57,-11.35 6.15,-10.56 11.12,-21.83 18.26,-31.79 37.57,-55.21 95.12,-95.68 158.65,-115.47 m -32.29,115.94 c -19.61,7.77 -38.72,16.75 -57.47,26.41 -24.84,13.47 -51.41,24.29 -73.62,42.12 2.12,-6.52 4.93,-12.77 7.57,-19.08 -9.97,9.87 -18.44,21.27 -25.7,33.26 -4.51,7.86 -8.79,16.44 -8.8,25.71 -0.12,4.39 2.3,8.24 5.4,11.15 -7.14,14.38 -14.06,29.04 -18.19,44.61 -3.12,11.9 -3.86,25.48 2.97,36.28 -6.39,18.14 -14.71,35.53 -22.61,53.05 -11.35,24.35 -22.8,48.65 -33.47,73.31 -15.66,36.64 -29.95,74.17 -37.52,113.41 -4.45,24.14 -6.37,49.08 -2.1,73.39 2.99,17.54 9.51,34.56 19.6,49.26 10.13,14.99 23.83,27.34 39.05,37.02 34.62,21.94 72.67,38.51 112.44,48.51 43.06,10.85 88.21,13.73 132.22,7.57 42.53,-6.04 83.99,-20.78 120.02,-44.29 29.3,-18.93 54.85,-43.53 75.18,-71.85 20.47,-28.88 37.04,-61.28 43.66,-96.3 4.79,-24.9 4.06,-50.55 0.52,-75.56 -5.41,-38.52 -15.72,-76.48 -16.46,-115.56 -0.91,-8.98 0.42,-17.95 0.29,-26.94 -9.59,-9.25 -20.28,-17.35 -29.16,-27.34 -9.95,-10.43 -18.55,-22.03 -27.64,-33.19 -0.72,-2.1 -2.49,-3.67 -3.7,-5.49 -30.1,-40.86 -56.24,-84.81 -90.38,-122.57 -17.78,-19.34 -38.15,-37.44 -63.05,-46.86 -3.88,-1.65 -8.2,-1.47 -12.29,-0.97 -12.71,1.88 -24.81,6.4 -36.76,10.94 m 340.94,225.06 c -10.03,2.32 -19.22,8.06 -25.68,16.08 -7.85,9.52 -11.91,22.03 -11.36,34.35 0.4901,14.94 8.07,29.62 20.39,38.21 9.91,7.01 22.8,9.75 34.67,7.08 14.78,-3.1 27.36,-14.04 33.27,-27.83 8.91,-19.95 3.53,-45.72 -13.97,-59.26 -10.31,-8.29 -24.42,-11.62 -37.32,-8.63 z"
   id="path2"
   style="fill:#323232;fill-opacity:1" />
	<path
   fill="#ffffff"
   d="m 366.45,177.58 c 11.95,-4.54 24.05,-9.06 36.76,-10.94 4.09,-0.5 8.41,-0.68 12.29,0.97 24.9,9.42 45.27,27.52 63.05,46.86 -1.91,0.91 -3.87,1.75 -5.94,2.22 -13.62,2.89 -26.82,7.44 -39.98,11.93 -39.12,13.63 -77.51,29.26 -116.36,43.63 -25.16,9.17 -50.34,18.62 -76.54,24.46 -7.09,1.71 -14.38,2.08 -21.64,2.29 -6.19,22.59 -3.34,47.07 4.85,68.8 4.69,10.49 11.12,21.3 22.01,26.27 13.78,6.34 29.4,4.32 44.01,2.96 9.27,-0.99 18.59,-2 27.93,-1.58 8.9,0.4 17.79,2.65 25.49,7.21 13.12,7.91 21.37,21.44 33.75,30.25 1.79,1.15 3.64,2.54 5.85,2.67 2.76,-0.26 5.24,-1.66 7.65,-2.92 9.83,-5.53 18.48,-12.81 27.41,-19.63 14.25,-10.64 33.79,-15.73 50.86,-9.14 17.23,5.94 32.29,17.52 50.44,20.93 9.93,1.98 20.96,0.29 28.6,-6.76 5.86,-3.09 9.37,-8.96 12.65,-14.47 6.52,-12.34 9.6,-26.19 11.02,-39.99 0.88,-7.01 0.21,-14.18 2.02,-21.07 9.09,11.16 17.69,22.76 27.64,33.19 8.88,9.99 19.57,18.09 29.16,27.34 0.13,8.99 -1.2,17.96 -0.29,26.94 0.74,39.08 11.05,77.04 16.46,115.56 3.54,25.01 4.27,50.66 -0.52,75.56 -6.62,35.02 -23.19,67.42 -43.66,96.3 -20.33,28.32 -45.88,52.92 -75.18,71.85 -36.03,23.51 -77.49,38.25 -120.02,44.29 -44.01,6.16 -89.16,3.28 -132.22,-7.57 -39.77,-10 -77.82,-26.57 -112.44,-48.51 -15.22,-9.68 -28.92,-22.03 -39.05,-37.02 -10.09,-14.7 -16.61,-31.72 -19.6,-49.26 -4.27,-24.31 -2.35,-49.25 2.1,-73.39 7.57,-39.24 21.86,-76.77 37.52,-113.41 10.67,-24.66 22.12,-48.96 33.47,-73.31 7.9,-17.52 16.22,-34.91 22.61,-53.05 -6.83,-10.8 -6.09,-24.38 -2.97,-36.28 4.13,-15.57 11.05,-30.23 18.19,-44.61 -3.1,-2.91 -5.52,-6.76 -5.4,-11.15 0.01,-9.27 4.29,-17.85 8.8,-25.71 7.26,-11.99 15.73,-23.39 25.7,-33.26 -2.64,6.31 -5.45,12.56 -7.57,19.08 22.21,-17.83 48.78,-28.65 73.62,-42.12 18.75,-9.66 37.86,-18.64 57.47,-26.41"
   id="path4"
   sodipodi:nodetypes="cccccccccccccccccccccccccccccccccccccccccccccccc" />
	<path
   fill="#FFC2CA"
   d="m 478.55,214.47 c 34.14,37.76 60.28,81.71 90.38,122.57 1.21,1.82 2.98,3.39 3.7,5.49 -1.81,6.89 -1.14,14.06 -2.02,21.07 -1.42,13.8 -4.5,27.65 -11.02,39.99 -3.28,5.51 -6.79,11.38 -12.65,14.47 3.55,-4.57 7.35,-9.04 9.84,-14.31 6.05,-12.3 6.65,-27.22 1.41,-39.9 -4.82,-12.16 -14.7,-22.15 -26.75,-27.2 -14.47,-6.25 -31.9,-4.82 -45.25,3.52 -11.6,7.08 -20.04,19.15 -22.53,32.52 -2.14,10.49 -0.63,21.66 4.24,31.2 -17.07,-6.59 -36.61,-1.5 -50.86,9.14 -8.93,6.82 -17.58,14.1 -27.41,19.63 -2.41,1.26 -4.89,2.66 -7.65,2.92 -2.21,-0.13 -4.06,-1.52 -5.85,-2.67 -12.38,-8.81 -20.63,-22.34 -33.75,-30.25 -7.7,-4.56 -16.59,-6.81 -25.49,-7.21 4.89,-11.99 4.77,-25.99 -0.5,-37.83 -8.44,-20.52 -31.88,-33.26 -53.7,-29.13 -14.76,2.3 -28.12,11.91 -35.2,25.05 -2.35,4.41 -4.49,9.16 -4.55,14.26 -8.19,-21.73 -11.04,-46.21 -4.85,-68.8 7.26,-0.21 14.55,-0.58 21.64,-2.29 26.2,-5.84 51.38,-15.29 76.54,-24.46 38.85,-14.37 77.24,-30 116.36,-43.63 13.16,-4.49 26.36,-9.04 39.98,-11.93 2.07,-0.47 4.03,-1.31 5.94,-2.22 m -125.08,82.08 c -6.05,2.97 -7.4,11.11 -6.08,17.14 0.57,3.81 4.24,8.23 8.44,6.21 5.72,-3.41 6.8,-11.23 5.43,-17.24 -0.81,-3.43 -3.79,-7.47 -7.79,-6.11 m 71.01,5.03 c -6.59,4.05 -7.78,13.88 -4.39,20.4 1.48,3.24 6.11,4.46 8.69,1.74 5.09,-4.94 5.91,-13.74 2.24,-19.74 -1.24,-2.35 -4.08,-3.39 -6.54,-2.4 z"
   id="path6"
   style="fill:#e1e1e1;fill-opacity:1" />
	<path
   fill="#AF0113"
   d="m 353.47,296.55 c 4,-1.36 6.98,2.68 7.79,6.11 1.37,6.01 0.29,13.83 -5.43,17.24 -4.2,2.02 -7.87,-2.4 -8.44,-6.21 -1.32,-6.03 0.03,-14.17 6.08,-17.14 z"
   id="path8"
   style="fill:#000000;fill-opacity:1" />
	<path
   fill="#AF0112"
   d="m 424.48,301.58 c 2.46,-0.99 5.3,0.05 6.54,2.4 3.67,6 2.85,14.8 -2.24,19.74 -2.58,2.72 -7.21,1.5 -8.69,-1.74 -3.39,-6.52 -2.2,-16.35 4.39,-20.4 z"
   id="path10"
   style="fill:#020000;fill-opacity:1" />
	<path
   fill="#CE000A"
   d="m 262.69,328.49 c 21.82,-4.13 45.26,8.61 53.7,29.13 5.27,11.84 5.39,25.84 0.5,37.83 -9.34,-0.42 -18.66,0.59 -27.93,1.58 -14.61,1.36 -30.23,3.38 -44.01,-2.96 -10.89,-4.97 -17.32,-15.78 -22.01,-26.27 0.06,-5.1 2.2,-9.85 4.55,-14.26 7.08,-13.14 20.44,-22.75 35.2,-25.05 z"
   id="path12"
   style="fill:#a2a2a2;fill-opacity:1" />
	<path
   fill="#CE000A"
   d="m 486.19,340.17 c 13.35,-8.34 30.78,-9.77 45.25,-3.52 12.05,5.05 21.93,15.04 26.75,27.2 5.24,12.68 4.64,27.6 -1.41,39.9 -2.49,5.27 -6.29,9.74 -9.84,14.31 -7.64,7.05 -18.67,8.74 -28.6,6.76 -18.15,-3.41 -33.21,-14.99 -50.44,-20.93 -4.87,-9.54 -6.38,-20.71 -4.24,-31.2 2.49,-13.37 10.93,-25.44 22.53,-32.52 z"
   id="path14"
   style="fill:#a3a3a3;fill-opacity:1" />
	<path
   fill="#ffffff"
   d="m 707.39,402.64 c 12.9,-2.99 27.01,0.34 37.32,8.63 17.5,13.54 22.88,39.31 13.97,59.26 -5.91,13.79 -18.49,24.73 -33.27,27.83 -11.87,2.67 -24.7599,-0.07 -34.67,-7.08 -12.32,-8.59 -19.9,-23.27 -20.39,-38.21 -0.55,-12.32 3.51,-24.83 11.36,-34.35 6.46,-8.02 15.65,-13.76 25.68,-16.08 z"
   id="path16" />
	<path
   fill="#B10012"
   d="m 425.9185,498.98384 c -7.05588,-2.10675 -14.6654,-4.17372 -24.46515,-5.67706 -14.01191,-2.26177 -31.40583,-3.45009 -48.67802,-3.24614 -18.65561,0.12649 -36.37456,1.66671 -52.78485,3.55395 4.83795,-3.90112 14.02679,-7.53797 26.50272,-10.46887 11.11978,-2.57875 25.29391,-4.62746 41.18188,-5.30353 12.88282,-0.54441 26.99765,0.029 37.31984,1.90423 11.08432,1.98788 17.257,5.037 20.1171,8.09145 3.37328,3.65968 3.20919,7.45978 0.80648,11.14597 z"
   id="path18"
   style="fill:#020000;fill-opacity:1;stroke-width:0.473433" />
<path
   style="fill:#020000;fill-opacity:1;stroke:#010101;stroke-width:6;stroke-opacity:1"
   id="path1415"
   sodipodi:type="arc"
   sodipodi:cx="333.98947"
   sodipodi:cy="252.27197"
   sodipodi:rx="81.199448"
   sodipodi:ry="47.788631"
   sodipodi:start="0"
   sodipodi:end="3.2016445"
   sodipodi:arc-type="slice"
   d="m 415.18892,252.27197 a 81.199448,47.788631 0 0 1 -42.0154,41.85615 81.199448,47.788631 0 0 1 -82.56575,-1.45948 81.199448,47.788631 0 0 1 -37.67138,-43.26474 l 81.05308,2.86807 z"
   transform="matrix(0.99560153,0.09368885,-0.13562952,0.99075962,0,0)" /><path
   style="fill:#020000;fill-opacity:1;stroke:#000000;stroke-width:6;stroke-opacity:1"
   id="path1415-3"
   transform="matrix(0.99744524,0.07143525,-0.00534831,0.9999857,0,0)"
   sodipodi:type="arc"
   sodipodi:cx="461.72098"
   sodipodi:cy="263.27551"
   sodipodi:rx="76.817001"
   sodipodi:ry="46.233238"
   sodipodi:start="0"
   sodipodi:end="3.1865116"
   sodipodi:arc-type="slice"
   d="m 538.53798,263.27551 a 76.817001,46.233238 0 0 1 -39.40885,40.38079 76.817001,46.233238 0 0 1 -77.7913,-1.05173 76.817001,46.233238 0 0 1 -36.35637,-41.40511 l 76.73952,2.07605 z" /></g>
</svg>
